<svg width="24" height="16" viewBox="0 0 24 16" fill="none" xmlns="http://www.w3.org/2000/svg">
<path d="M3.75 0.999969C3.75 0.861898 3.86193 0.749969 4 0.749969H23C23.1381 0.749969 23.25 0.861899 23.25 0.999969V12C23.25 12.138 23.1381 12.25 23 12.25H4C3.86193 12.25 3.75 12.138 3.75 12V0.999969Z" fill="white" stroke="#9597A6" stroke-width="1.5"/>
<path d="M17.25 6.49997C17.25 8.01875 16.0188 9.24997 14.5 9.24997C12.9812 9.24997 11.75 8.01875 11.75 6.49997C11.75 4.98119 12.9812 3.74997 14.5 3.74997C16.0188 3.74997 17.25 4.98119 17.25 6.49997Z" fill="white" stroke="#9597A6" stroke-width="1.5"/>
<path d="M0.75 3.99997C0.75 3.8619 0.861929 3.74997 1 3.74997H20C20.1381 3.74997 20.25 3.8619 20.25 3.99997V15C20.25 15.138 20.1381 15.25 20 15.25H1C0.861929 15.25 0.75 15.138 0.75 15V3.99997Z" fill="white" stroke="#9597A6" stroke-width="1.5"/>
<path d="M13.25 9.49997C13.25 11.0188 12.0188 12.25 10.5 12.25C8.98122 12.25 7.75 11.0188 7.75 9.49997C7.75 7.98119 8.98122 6.74997 10.5 6.74997C12.0188 6.74997 13.25 7.98119 13.25 9.49997Z" fill="white" stroke="#9597A6" stroke-width="1.5"/>
</svg>
