<svg width="36" height="36" viewBox="0 0 36 36" fill="none" xmlns="http://www.w3.org/2000/svg">
<rect width="36" height="36" rx="18" fill="#E1E4FA"/>
<path d="M17.8836 9.61548C18.8053 9.61548 19.7063 9.88617 20.4727 10.3933C21.239 10.9005 21.8363 11.6213 22.189 12.4646C22.5417 13.308 22.634 14.236 22.4542 15.1313C22.2744 16.0266 21.8306 16.849 21.1788 17.4944C20.5271 18.1399 19.6967 18.5795 18.7928 18.7576C17.8888 18.9356 16.9518 18.8442 16.1002 18.4949C15.2487 18.1456 14.5209 17.554 14.0088 16.795C13.4968 16.036 13.2235 15.1437 13.2235 14.2309C13.2235 13.0068 13.7144 11.8328 14.5884 10.9673C15.4623 10.1017 16.6477 9.61548 17.8836 9.61548ZM17.8836 27.1539C16.4123 27.1593 14.9574 26.8475 13.62 26.2402C12.2825 25.6329 11.0945 24.7446 10.1384 23.637C12.2642 21.7416 15.0233 20.6928 17.8836 20.6928C20.744 20.6928 23.503 21.7416 25.6288 23.637C24.6727 24.7446 23.4847 25.6329 22.1473 26.2402C20.8098 26.8475 19.3549 27.1593 17.8836 27.1539Z" fill="#8E92A9"/>
</svg>
