<svg width="133" height="27" viewBox="0 0 133 27" fill="none" xmlns="http://www.w3.org/2000/svg">
<path fill-rule="evenodd" clip-rule="evenodd" d="M12.6357 2.81193V0.00396729H7.01978V2.81193C7.01978 4.36314 8.27754 5.61989 9.82774 5.61989C11.379 5.61989 12.6357 4.36314 12.6357 2.81193Z" fill="#5D57FB"/>
<path fill-rule="evenodd" clip-rule="evenodd" d="M14.0396 0.00415039V2.81211C14.0396 4.36231 15.2963 5.62008 16.8475 5.62008H19.6555V0.00415039H14.0396Z" fill="#5D57FB"/>
<path fill-rule="evenodd" clip-rule="evenodd" d="M5.61593 2.81163V0.00366211H0V5.61959H2.80796C4.35917 5.61959 5.61593 4.36284 5.61593 2.81163Z" fill="#5D57FB"/>
<path fill-rule="evenodd" clip-rule="evenodd" d="M5.61593 9.83152C5.61593 8.28031 4.35917 7.02356 2.80796 7.02356H0V12.6395H2.80796C4.35917 12.6395 5.61593 11.3827 5.61593 9.83152Z" fill="#5D57FB"/>
<path fill-rule="evenodd" clip-rule="evenodd" d="M19.6552 14.0434H16.8473C15.2971 14.0434 14.0393 15.3001 14.0393 16.8514V19.6593H19.6552V14.0434Z" fill="#5D57FB"/>
<path fill-rule="evenodd" clip-rule="evenodd" d="M12.6357 9.83152C12.6357 8.28031 11.379 7.02356 9.82774 7.02356C8.27754 7.02356 7.01978 8.28031 7.01978 9.83152C7.01978 11.3827 8.27754 12.6395 9.82774 12.6395C11.379 12.6395 12.6357 11.3827 12.6357 9.83152Z" fill="#5D57FB"/>
<path fill-rule="evenodd" clip-rule="evenodd" d="M9.82786 14.0434C8.27665 14.0434 7.0199 15.3001 7.0199 16.8514V19.6593H12.6358V16.8514C12.6358 15.3001 11.3791 14.0434 9.82786 14.0434Z" fill="#5D57FB"/>
<path fill-rule="evenodd" clip-rule="evenodd" d="M2.80809 14.0434H0.00012207V19.6593H5.61605V16.8514C5.61605 15.3001 4.3593 14.0434 2.80809 14.0434Z" fill="#5D57FB"/>
<path fill-rule="evenodd" clip-rule="evenodd" d="M16.8474 7.02368C15.2962 7.02368 14.0394 8.28044 14.0394 9.83165C14.0394 11.3818 15.2962 12.6396 16.8474 12.6396H19.6554V7.02368H16.8474Z" fill="#5D57FB"/>
<path fill-rule="evenodd" clip-rule="evenodd" d="M50.137 5.05029C45.9427 5.05029 42.2635 8.03795 42.2635 12.5797C42.2635 16.5438 45.3835 20.2121 50.137 20.2121C54.3314 20.2121 58.0105 17.224 58.0105 12.6827C58.0105 8.71857 54.8905 5.05029 50.137 5.05029ZM52.981 12.6326C52.981 14.1829 51.7242 15.4397 50.1739 15.4397C48.6236 15.4397 47.3668 14.1829 47.3668 12.6326C47.3668 11.0828 48.6236 9.826 50.1739 9.826C51.7242 9.826 52.981 11.0828 52.981 12.6326Z" fill="#100826"/>
<path fill-rule="evenodd" clip-rule="evenodd" d="M97.6682 5.05029C93.4738 5.05029 89.7947 8.03795 89.7947 12.5797C89.7947 16.5438 92.9147 20.2121 97.6682 20.2121C101.863 20.2121 105.542 17.224 105.542 12.6827C105.542 8.71857 102.422 5.05029 97.6682 5.05029ZM100.512 12.6326C100.512 14.1829 99.2553 15.4397 97.705 15.4397C96.1547 15.4397 94.8979 14.1829 94.8979 12.6326C94.8979 11.0828 96.1547 9.826 97.705 9.826C99.2553 9.826 100.512 11.0828 100.512 12.6326Z" fill="#100826"/>
<path fill-rule="evenodd" clip-rule="evenodd" d="M34.229 5.05032C31.5264 5.05032 29.8731 6.88044 29.8731 6.88044V0H25.2727V19.6502H29.8731V18.5101C29.8731 18.5101 31.1554 20.2122 34.3515 20.2122C37.9158 20.2122 41.4852 17.0534 41.4852 12.7272C41.4852 8.12731 38.1001 5.05032 34.229 5.05032ZM33.6212 15.4398C32.0709 15.4398 30.8141 14.183 30.8141 12.6327C30.8141 11.0828 32.0709 9.82603 33.6212 9.82603C35.1715 9.82603 36.4283 11.0828 36.4283 12.6327C36.4283 14.183 35.1715 15.4398 33.6212 15.4398Z" fill="#100826"/>
<path fill-rule="evenodd" clip-rule="evenodd" d="M58.9509 19.6501H63.5513V0.000427246H58.9509V19.6501Z" fill="#100826"/>
<path fill-rule="evenodd" clip-rule="evenodd" d="M85.5661 14.0359C84.0158 14.0359 82.759 15.2927 82.759 16.843C82.759 18.3933 84.0158 19.6501 85.5661 19.6501C87.1164 19.6501 88.3732 18.3933 88.3732 16.843C88.3732 15.2927 87.1164 14.0359 85.5661 14.0359Z" fill="#100826"/>
<path fill-rule="evenodd" clip-rule="evenodd" d="M64.882 12.7273C64.882 17.053 68.4515 20.2123 72.0157 20.2123C75.2118 20.2123 76.4937 18.5098 76.4937 18.5098V19.6498H81.0945V0.00012207H76.4937V6.88056C76.4937 6.88056 74.8408 5.05044 72.1382 5.05044C68.2671 5.05044 64.882 8.12743 64.882 12.7273ZM69.9389 12.6328C69.9389 11.0829 71.1957 9.82568 72.746 9.82568C74.2963 9.82568 75.5531 11.0829 75.5531 12.6328C75.5531 14.1831 74.2963 15.4399 72.746 15.4399C71.1957 15.4399 69.9389 14.1831 69.9389 12.6328Z" fill="#100826"/>
<path fill-rule="evenodd" clip-rule="evenodd" d="M112.146 7.49852V5.61074H107.56V19.6065H112.146V13.0291C112.146 11.9817 112.294 11.2448 112.589 10.817C113.061 10.153 113.96 9.69543 114.889 9.69543C115.125 9.69543 115.435 9.7252 115.833 9.7701V5.07995C115.612 5.0653 115.465 5.05017 115.361 5.05017C113.828 5.05017 112.751 5.7289 112.146 7.49852Z" fill="#100826"/>
<path fill-rule="evenodd" clip-rule="evenodd" d="M128.192 5.59862V6.73914C128.192 6.73914 126.91 5.03711 123.714 5.03711C120.15 5.03711 116.58 8.19539 116.58 12.5216C116.58 17.122 119.965 20.1989 123.836 20.1989C126.499 20.1989 128.143 18.4222 128.19 18.3707V19.0811C128.19 21.5644 126.827 23.094 124.359 23.094C122.663 23.094 121.225 22.4426 120.029 21.1253L117.182 24.0322C119.287 26.0154 121.755 27 124.601 27C126.176 27 127.599 26.697 128.871 26.1067C131.657 24.7738 132.792 22.7154 132.792 18.3698V18.3683V5.59862H128.192ZM124.444 15.4232C122.894 15.4232 121.637 14.1664 121.637 12.6161C121.637 11.0654 122.894 9.80904 124.444 9.80904C125.995 9.80904 127.251 11.0654 127.251 12.6161C127.251 14.1664 125.995 15.4232 124.444 15.4232Z" fill="#100826"/>
</svg>
