<svg width="20" height="20" viewBox="0 0 20 20" fill="none" xmlns="http://www.w3.org/2000/svg">
<path fill-rule="evenodd" clip-rule="evenodd" d="M12.6357 2.81193V0.00396729H7.01978V2.81193C7.01978 4.36314 8.27754 5.6199 9.82774 5.6199C11.379 5.6199 12.6357 4.36314 12.6357 2.81193Z" fill="#5D57FB"/>
<path fill-rule="evenodd" clip-rule="evenodd" d="M14.0396 0.00415039V2.81211C14.0396 4.36231 15.2963 5.62008 16.8475 5.62008H19.6555V0.00415039H14.0396Z" fill="#5D57FB"/>
<path fill-rule="evenodd" clip-rule="evenodd" d="M5.61593 2.81163V0.00366211H0V5.61959H2.80796C4.35917 5.61959 5.61593 4.36284 5.61593 2.81163Z" fill="#5D57FB"/>
<path fill-rule="evenodd" clip-rule="evenodd" d="M5.61593 9.83152C5.61593 8.28031 4.35917 7.02356 2.80796 7.02356H0V12.6395H2.80796C4.35917 12.6395 5.61593 11.3827 5.61593 9.83152Z" fill="#5D57FB"/>
<path fill-rule="evenodd" clip-rule="evenodd" d="M19.6552 14.0434H16.8473C15.2971 14.0434 14.0393 15.3001 14.0393 16.8514V19.6593H19.6552V14.0434Z" fill="#5D57FB"/>
<path fill-rule="evenodd" clip-rule="evenodd" d="M12.6357 9.83152C12.6357 8.28031 11.379 7.02356 9.82774 7.02356C8.27754 7.02356 7.01978 8.28031 7.01978 9.83152C7.01978 11.3827 8.27754 12.6395 9.82774 12.6395C11.379 12.6395 12.6357 11.3827 12.6357 9.83152Z" fill="#5D57FB"/>
<path fill-rule="evenodd" clip-rule="evenodd" d="M9.82786 14.0434C8.27665 14.0434 7.0199 15.3001 7.0199 16.8514V19.6593H12.6358V16.8514C12.6358 15.3001 11.3791 14.0434 9.82786 14.0434Z" fill="#5D57FB"/>
<path fill-rule="evenodd" clip-rule="evenodd" d="M2.80809 14.0434H0.00012207V19.6593H5.61605V16.8514C5.61605 15.3001 4.3593 14.0434 2.80809 14.0434Z" fill="#5D57FB"/>
<path fill-rule="evenodd" clip-rule="evenodd" d="M16.8474 7.02368C15.2962 7.02368 14.0394 8.28044 14.0394 9.83165C14.0394 11.3818 15.2962 12.6396 16.8474 12.6396H19.6554V7.02368H16.8474Z" fill="#5D57FB"/>
</svg>
